<svg id="Capa_1" data-name="Capa 1" xmlns="http://www.w3.org/2000/svg" xmlns:xlink="http://www.w3.org/1999/xlink" viewBox="0 0 96.65 81.42">
  <defs>
    <style>
      .cls-1 {
        fill: url(#linear-gradient);
      }

      .cls-2 {
        fill: url(#linear-gradient-2);
      }
    </style>
    <linearGradient id="linear-gradient" x1="24.38" y1="26.53" x2="63.92" y2="26.53" gradientUnits="userSpaceOnUse">
      <stop offset="0"/>
      <stop offset="0.33"/>
      <stop offset="0.52"/>
      <stop offset="0.73"/>
      <stop offset="1"/>
    </linearGradient>
    <linearGradient id="linear-gradient-2" x1="1.7" y1="66.53" x2="98.35" y2="66.53" xlink:href="#linear-gradient"/>
  </defs>
  <title>circ5</title>
  <path class="cls-1" d="M45.08,26.3l8.54,14.79,2.91,0q3.75,0,7.39.17L45.08,8.6,24.38,44.46c3.59-.82,7.41-1.51,11.39-2ZM29.76,40.6L45.08,14l14,24.32-2.59,0H55.18L47.44,24.94l-2.36-4.08-2.36,4.08-8.64,15C32.62,40.11,31.18,40.34,29.76,40.6Z" transform="translate(-1.7 -8.6)"/>
  <path class="cls-2" d="M32.39,90c-10.68-4.69-17.2-11-17.2-17.87a12.24,12.24,0,0,1,2.08-6.65H77.94L66.88,46.37c4.21-.35,8.56-0.53,13-0.53a154.78,154.78,0,0,1,17.34,1l-1-.3,1,0.3,1.11,0.13q-1.46-.37-3-0.71h0A142.06,142.06,0,0,0,65,43h-0.2q-3.77,0-7.42.17l-2.42.13h0a134,134,0,0,0-21.42,3l-1.67.4a89.39,89.39,0,0,0-10.69,3.31C9.16,54.66,1.7,61.14,1.7,68.32,1.7,77.54,14,85.61,32.39,90ZM57.31,47.48l5.3,9.18h-35C35,52.52,45.31,49.3,57.31,47.48Z" transform="translate(-1.7 -8.6)"/>
</svg>
