<svg id="Capa_1" data-name="Capa 1" xmlns="http://www.w3.org/2000/svg" xmlns:xlink="http://www.w3.org/1999/xlink" viewBox="0 0 96.37 96.3">
  <defs>
    <style>
      .cls-1 {
        fill: url(#linear-gradient);
      }

      .cls-2 {
        fill: url(#linear-gradient-2);
      }
    </style>
    <linearGradient id="linear-gradient" x1="14.56" y1="56.86" x2="98.05" y2="56.86" gradientUnits="userSpaceOnUse">
      <stop offset="0"/>
      <stop offset="0.33"/>
      <stop offset="0.52"/>
      <stop offset="0.73"/>
      <stop offset="1"/>
    </linearGradient>
    <linearGradient id="linear-gradient-2" x1="1.68" y1="32.72" x2="62.53" y2="32.72" xlink:href="#linear-gradient"/>
  </defs>
  <title>circ3</title>
  <g>
    <path class="cls-1" d="M56.92,15.11a30.21,30.21,0,0,1,3.89,7.51,34.74,34.74,0,0,1,3.49.64l0.57,0.14,0.14,0,0.73,0.2h0l0.7,0.2L67,24l0.61,0.21,0.57,0.2,0.56,0.21A33.1,33.1,0,0,1,72,26.11l0.74,0.39c0.42,0.23.82,0.46,1.23,0.7l0.51,0.31,0.24,0.15L75.26,28l0.51,0.34A34.62,34.62,0,0,1,81.27,33c0.2,0.2.38,0.4,0.57,0.6l0.45,0.51c0.24,0.28.48,0.56,0.71,0.84s0.28,0.34.41,0.51L84,36.21l0.49,0.67c0.17,0.23.32,0.45,0.48,0.68,0.31,0.46.61,0.92,0.9,1.4,0.15,0.24.29,0.48,0.43,0.72l0.41,0.73c0.28,0.53.56,1.06,0.82,1.6,0.11,0.21.2,0.43,0.3,0.65L88,43.3c0.09,0.19.17,0.38,0.24,0.58l0.21,0.54c0.17,0.45.34,0.91,0.5,1.37,0.09,0.27.18,0.54,0.26,0.81v0q0.12,0.39.23,0.78c0.21,0.74.4,1.5,0.56,2.26,0,0.19.08,0.39,0.12,0.58l0.06,0.33c0,0.15.06,0.3,0.08,0.45s0.07,0.43.1,0.64,0.07,0.43.09,0.65l0,0.29c0,0.16,0,.32.06,0.48s0,0.31,0,.46,0,0.47.06,0.7,0,0.55.05,0.83,0,0.59,0,.88,0,0.59,0,.89A34.56,34.56,0,0,1,56.3,91.37H55.41l-0.88,0-0.87-.06h0l-0.81-.07-0.69-.08-0.43-.06L51.08,91H51l-0.61-.1-0.51-.09-0.75-.15a33.56,33.56,0,0,1-4-1.09l-0.76-.27L43.71,89l-1-.41-0.62-.27L41.44,88l-0.84-.42-0.69-.36-0.78-.44-0.72-.43h0c-0.44-.26-0.87-0.54-1.29-0.82L37,85.46,36.33,85l-0.67-.49L35,84l-0.53-.43c-0.28-.23-0.56-0.46-0.83-0.7l-0.54-.48h0c-0.2-.18-0.41-0.37-0.6-0.57l-0.6-.58c-0.38-.38-0.76-0.77-1.12-1.17l-0.57-.65q-0.54-.62-1-1.26l-0.61-.8-0.34-.48-0.11-.16c-0.14-.2-0.28-0.4-0.41-0.6s-0.26-.39-0.39-0.59-0.36-.56-0.54-0.85Q26.34,74,26,73.29c-0.5-.91-1-1.86-1.37-2.82-0.09-.22-0.19-0.45-0.28-0.67v0l-0.2-.51-0.18-.47-0.17-.49c-0.09-.23-0.17-0.47-0.24-0.71s-0.15-.48-0.23-0.72a0.2,0.2,0,0,1,0-.07c-0.07-.23-0.14-0.47-0.2-0.7s-0.14-.5-0.2-0.76c-0.19-.76-0.36-1.53-0.5-2.31,0-.26-0.09-0.52-0.13-0.78s-0.08-.52-0.11-0.79a30.2,30.2,0,0,1-7.53-3.88A41.74,41.74,0,1,0,56.92,15.11Zm-35,38.47c0-.26.05-0.51,0.08-0.77s0.06-.51.1-0.76,0.07-.51.11-0.76,0.09-.5.13-0.75c0.19-1,.41-2,0.68-2.95,0.06-.24.14-0.48,0.21-0.72h0l0.17-.56a2.2,2.2,0,0,1,.08-0.24l0.21-.62c0.06-.18.12-0.37,0.2-0.54L24,44.58c0.15-.4.31-0.8,0.48-1.19s0.4-.92.62-1.37l0.31-.64c0.06-.14.14-0.27,0.21-0.4l0.25-.48L26,40.32c0.11-.22.23-0.43,0.36-0.64l0.33-.57,0.3-.49,0.28-.45q0.59-.92,1.25-1.81L29,35.78l0.35-.44c0.34-.43.7-0.86,1.08-1.28l0.46-.51c0.33-.36.66-0.71,1-1.06l0.43-.42L33,31.44l0.5-.45c0.3-.27.61-0.53,0.92-0.79l0.48-.39c0.7-.55,1.41-1.08,2.15-1.58l0.64-.42,0.51-.32,0.39-.24,0.58-.34,0.73-.41,0.74-.39,0.75-.37,0,0c0.44-.21.89-0.42,1.35-0.61l1-.42,0.68-.26,0.61-.22,0.31-.11L46,23.89l0.81-.24,0.82-.23,0.73-.18L49,23.12l0.25-.06L49.63,23l0.74-.14,0.53-.09,0.56-.09c0.48-.07,1-0.13,1.46-0.17a23.23,23.23,0,0,0-4.85-6.58A41.8,41.8,0,0,0,15.34,48.75,23.32,23.32,0,0,0,21.94,53.58Z" transform="translate(-1.68 -2.29)"/>
    <path class="cls-2" d="M62,27.13a30.18,30.18,0,0,0-5.72-.54c-0.61,0-1.21,0-1.81.06A23.2,23.2,0,0,1,26.08,55.13h0c0,0.57,0,1.14,0,1.72a30.06,30.06,0,0,0,.56,5.81A30.45,30.45,0,0,0,62,27.13ZM32.1,2.3A30.43,30.43,0,0,0,10.39,54,45.93,45.93,0,0,1,12,44.33,23.2,23.2,0,0,1,43.66,12.61a45.9,45.9,0,0,1,9.7-1.66A30.31,30.31,0,0,0,32.1,2.3Z" transform="translate(-1.68 -2.29)"/>
  </g>
</svg>
