<svg id="Capa_1" data-name="Capa 1" xmlns="http://www.w3.org/2000/svg" xmlns:xlink="http://www.w3.org/1999/xlink" viewBox="0 0 96.74 96.74">
  <defs>
    <style>
      .cls-1 {
        fill: url(#linear-gradient);
      }

      .cls-2 {
        fill: url(#linear-gradient-2);
      }

      .cls-3 {
        fill: url(#linear-gradient-3);
      }

      .cls-4 {
        fill: url(#linear-gradient-4);
      }

      .cls-5 {
        fill: url(#linear-gradient-5);
      }

      .cls-6 {
        fill: url(#linear-gradient-6);
      }

      .cls-7 {
        fill: url(#linear-gradient-7);
      }

      .cls-8 {
        fill: url(#linear-gradient-8);
      }

      .cls-9 {
        fill: url(#linear-gradient-9);
      }

      .cls-10 {
        fill: url(#linear-gradient-10);
      }

      .cls-11 {
        fill: url(#linear-gradient-11);
      }

      .cls-12 {
        fill: url(#linear-gradient-12);
      }
    </style>
    <linearGradient id="linear-gradient" x1="57.92" y1="41.62" x2="75.59" y2="41.62" gradientTransform="translate(48.98 -35.02) rotate(45)" gradientUnits="userSpaceOnUse">
      <stop offset="0"/>
      <stop offset="0.33"/>
      <stop offset="0.52"/>
      <stop offset="0.73"/>
      <stop offset="1"/>
    </linearGradient>
    <linearGradient id="linear-gradient-2" x1="32.15" y1="67.39" x2="49.82" y2="67.39" gradientTransform="translate(59.66 -9.24) rotate(45)" xlink:href="#linear-gradient"/>
    <linearGradient id="linear-gradient-3" x1="49.82" y1="33.52" x2="67.5" y2="33.52" gradientTransform="translate(40.88 -31.66) rotate(45)" xlink:href="#linear-gradient"/>
    <linearGradient id="linear-gradient-4" x1="24.05" y1="59.29" x2="41.72" y2="59.29" gradientTransform="translate(51.56 -5.89) rotate(45)" xlink:href="#linear-gradient"/>
    <linearGradient id="linear-gradient-5" x1="24.05" y1="41.62" x2="41.72" y2="41.62" gradientTransform="translate(39.06 -11.06) rotate(45)" xlink:href="#linear-gradient"/>
    <linearGradient id="linear-gradient-6" x1="32.15" y1="33.52" x2="49.82" y2="33.52" gradientTransform="translate(35.71 -19.16) rotate(45)" xlink:href="#linear-gradient"/>
    <linearGradient id="linear-gradient-7" x1="57.92" y1="59.29" x2="75.59" y2="59.29" gradientTransform="translate(61.48 -29.84) rotate(45)" xlink:href="#linear-gradient"/>
    <linearGradient id="linear-gradient-8" x1="49.82" y1="67.39" x2="67.5" y2="67.39" gradientTransform="translate(64.83 -21.74) rotate(45)" xlink:href="#linear-gradient"/>
    <linearGradient id="linear-gradient-9" x1="30.7" y1="85.44" x2="66.04" y2="85.44" gradientTransform="matrix(1, 0, 0, 1, 0, 0)" xlink:href="#linear-gradient"/>
    <linearGradient id="linear-gradient-10" x1="0" y1="48.37" x2="22.6" y2="48.37" gradientTransform="matrix(1, 0, 0, 1, 0, 0)" xlink:href="#linear-gradient"/>
    <linearGradient id="linear-gradient-11" x1="74.14" y1="48.37" x2="96.74" y2="48.37" gradientTransform="matrix(1, 0, 0, 1, 0, 0)" xlink:href="#linear-gradient"/>
    <linearGradient id="linear-gradient-12" x1="30.7" y1="11.3" x2="66.04" y2="11.3" gradientTransform="matrix(1, 0, 0, 1, 0, 0)" xlink:href="#linear-gradient"/>
  </defs>
  <title>circ4</title>
  <rect class="cls-1" x="57.74" y="38.14" width="18.03" height="6.96" transform="translate(-11.33 57.31) rotate(-45)"/>
  <rect class="cls-2" x="31.97" y="63.91" width="18.03" height="6.96" transform="translate(-37.1 46.63) rotate(-45)"/>
  <rect class="cls-3" x="49.64" y="30.04" width="18.03" height="6.96" transform="translate(-7.97 49.21) rotate(-45)"/>
  <rect class="cls-4" x="23.87" y="55.81" width="18.03" height="6.96" transform="translate(-33.75 38.54) rotate(-45)"/>
  <rect class="cls-5" x="29.4" y="32.6" width="6.96" height="18.03" transform="translate(-21.25 33.36) rotate(-45)"/>
  <rect class="cls-6" x="37.5" y="24.5" width="6.96" height="18.03" transform="translate(-13.15 36.71) rotate(-45)"/>
  <rect class="cls-7" x="63.28" y="50.28" width="6.96" height="18.03" transform="translate(-23.82 62.49) rotate(-45)"/>
  <rect class="cls-8" x="55.18" y="58.38" width="6.96" height="18.03" transform="translate(-31.92 59.13) rotate(-45)"/>
  <polygon class="cls-9" points="66.05 79.07 61.12 74.14 48.37 86.89 35.62 74.14 30.7 79.07 48.37 96.74 66.05 79.07"/>
  <polygon class="cls-10" points="22.6 35.62 17.67 30.7 0 48.37 17.67 66.05 22.6 61.12 9.85 48.37 22.6 35.62"/>
  <polygon class="cls-11" points="79.07 30.7 74.14 35.62 86.89 48.37 74.14 61.12 79.07 66.05 96.74 48.37 79.07 30.7"/>
  <polygon class="cls-12" points="61.12 22.6 66.05 17.67 48.37 0 30.7 17.67 35.62 22.6 48.37 9.85 61.12 22.6"/>
</svg>
