<svg id="Capa_1" data-name="Capa 1" xmlns="http://www.w3.org/2000/svg" xmlns:xlink="http://www.w3.org/1999/xlink" viewBox="0 0 96.65 96.65">
  <defs>
    <style>
      .cls-1 {
        fill: url(#linear-gradient);
      }

      .cls-2 {
        fill: url(#linear-gradient-2);
      }
    </style>
    <linearGradient id="linear-gradient" x1="2.28" y1="43.43" x2="84.47" y2="43.43" gradientUnits="userSpaceOnUse">
      <stop offset="0"/>
      <stop offset="0.33"/>
      <stop offset="0.52"/>
      <stop offset="0.73"/>
      <stop offset="1"/>
    </linearGradient>
    <linearGradient id="linear-gradient-2" x1="16.74" y1="56.94" x2="98.93" y2="56.94" xlink:href="#linear-gradient"/>
  </defs>
  <title>circ1</title>
  <path class="cls-1" d="M2.84,42.81v0.1c0,0.08,0,.17,0,0.25h0v0l0,0.15,0,0.13v0.06h0v0h0v0.07h0v0l-0.06.48,0,0.43,0,0.16h0c0,0.17,0,.35-0.06.53s0,0.26,0,.4h0v0.13c0,0.05,0,.1,0,0.16v0.61c0,0.18,0,.37,0,0.58h0c0,0.09,0,.18,0,0.27s0,0.19,0,.29h0V48h0v0c0,0.11,0,.22,0,0.32v0.14c0,0.2,0,.38,0,0.57,0,0,0,.06,0,0.09v0.07c0,0.16,0,.31,0,0.47v0.13h0v0.16s0,0.09,0,.14,0,0.07,0,.1,0,0.07,0,.1,0,0.09,0,.14v0.28A34.82,34.82,0,0,0,37.1,85a35.33,35.33,0,0,0,4.35-.27c0.65-.08,1.3-0.17,1.94-0.29h0A40.27,40.27,0,0,1,28.16,67.81C28,67.4,27.77,67,27.58,66.57l-0.06-.14a40.08,40.08,0,0,1,3.75-39.12,40.45,40.45,0,0,1,3.53-4.37,40.06,40.06,0,0,1,49.68-7.23h0l-0.17-.17-0.23-.22L84,15.25h0l0,0h0L83.74,15l-0.22-.21h0l0,0,0,0-0.26-.24,0,0-0.11-.1L83,14.33,82.63,14l-0.41-.36-0.13-.11-0.28-.24-0.19-.16L81.52,13h0L81.44,13l0,0-0.33-.27h0l-0.24-.2h0L80,11.8h0l-0.22-.17-0.09-.07-0.05,0,0,0h0l-0.15-.11-0.06,0-0.21-.15-0.07,0L78.9,11l-0.08-.06h0l-0.25-.18-0.06,0,0,0,0,0-0.6-.42h0l-0.27-.19L77.5,10h0l-0.41-.27h0l-0.09-.06-0.29-.19h0l-0.44-.28h0l-0.46-.28-0.24-.15h0l-0.11-.07-0.14-.08h0l-0.09,0-0.33-.19-0.08,0L74.54,8.2,74.23,8l0,0c-0.68-.38-1.38-0.75-2.09-1.1l0,0h0l-0.47-.23-0.41-.2h0l0,0h0C70.59,6.17,70.14,6,69.7,5.78h0l-0.31-.14,0,0h0l-0.19-.08-0.2-.08-0.09,0-1.2-.47-0.21-.08h0l-0.22-.08c-0.59-.21-1.2-0.42-1.82-0.62h0L64.9,4,64.54,3.9l-0.22-.07-0.77-.22h0l-0.1,0-0.16,0H63.19c-0.51-.14-1-0.26-1.55-0.38l-0.92-.21c-0.52-.11-1-0.22-1.56-0.31l-0.58-.1h0L58,2.42l-0.27,0-0.34-.05-1.68-.2C54.61,2,53.52,1.94,52.42,1.9c-0.61,0-1.21,0-1.82,0-1,0-2,0-3.07.1L47.21,2c-1.13.08-2.26,0.2-3.37,0.35l-0.6.09h0L2.84,42.8h0Z" transform="translate(-2.28 -1.86)"/>
  <path class="cls-2" d="M98.38,57.5V57.42c0-.07,0-0.14,0-0.21V57.15c0-.09,0-0.18,0-0.27v-0.2l0-.3,0-.21c0-.2,0-0.39.07-0.57v0c0-.18,0-0.35.05-0.52s0-.28,0-0.41h0V54.5c0-.1,0-0.19,0-0.28V54.14c0-.12,0-0.24,0-0.37v0c0-.18,0-0.36,0-0.57h0c0-.19,0-0.37,0-0.56V52.38c0-.15,0-0.31,0-0.47s0-.41,0-0.61V51.18c0-.14,0-0.29,0-0.43V50.56c0-.12,0-0.25,0-0.37s0-.26,0-0.39h0V49.66a34.82,34.82,0,0,0-34.82-34.3,35.22,35.22,0,0,0-6.29.56A40,40,0,0,1,16.74,84.66h0l0,0,0,0,0.09,0.09L17,84.9l0.24,0.23h0l0.43,0.41,0,0,0,0L18,85.88h0l0.53,0.48h0L19,86.71l0,0,0.08,0.07h0l0.34,0.3,0.07,0.06,0,0,0.28,0.23,0,0,0,0,0.27,0.22,0,0,0,0,0.22,0.17,0,0,0,0,0.8,0.62,0.17,0.14,0.2,0.15,0.11,0.08,0.07,0,0.32,0.24,0.1,0.07,0.16,0.12,0,0,0,0,0.24,0.17,0.09,0.06,0.6,0.42h0l0.27,0.18,0.07,0L24,90.5l0.24,0.16,0.37,0.24,0.37,0.24h0.31l0.55,0.52L26,91.82l0.5,0.29h0L27,92.35c0.71,0.4,1.44.79,2.16,1.14l0.48,0.23,0.07,0L30.14,94l1.38,0.62h0l0.34,0.15,0.11,0L32.44,95l1.2,0.47h0l0.39,0.15h0c0.62,0.23,1.23.43,1.82,0.62h0l0.36,0.11h0l0.54,0.17,0.15,0,0.64,0.18L38,96.85h0c1.33,0.36,2.69.66,4,.9h0l0.55,0.1h0L43.21,98h0.05L43.83,98h0a49.07,49.07,0,0,0,13.52,0h0L57.95,98h0L98.37,57.57A0.62,0.62,0,0,1,98.38,57.5Z" transform="translate(-2.28 -1.86)"/>
</svg>
